<?xml version="1.0" standalone="no"?>
<!DOCTYPE svg PUBLIC "-//W3C//DTD SVG 20010904//EN"
 "http://www.w3.org/TR/2001/REC-SVG-20010904/DTD/svg10.dtd">
<svg version="1.0" xmlns="http://www.w3.org/2000/svg"
 width="187.000000pt" height="150.000000pt" viewBox="0 0 187.000000 150.000000"
 preserveAspectRatio="xMidYMid meet">

<g transform="translate(0.000000,150.000000) scale(0.100000,-0.100000)"
fill="#000000" stroke="none">
<path d="M836 1489 c-211 -25 -429 -171 -533 -357 -38 -68 -79 -166 -66 -160
125 63 191 80 304 77 87 -2 88 -2 129 34 181 155 472 114 600 -85 46 -71 58
-108 67 -200 l6 -67 41 -7 c62 -10 142 -92 151 -156 11 -73 -2 -125 -44 -171
-64 -72 -86 -77 -338 -77 l-223 0 0 -161 0 -162 248 5 c236 5 251 6 326 32
261 89 407 358 337 623 -29 112 -78 188 -174 271 -26 22 -44 50 -58 89 -55
161 -187 314 -339 392 -143 74 -275 98 -434 80z"/>
</g>
</svg>
